<?xml version="1.0" encoding="UTF-8"?>
<svg id="Layer_1" data-name="Layer 1" xmlns="http://www.w3.org/2000/svg" width="75" height="75" viewBox="0 0 75 75">
  <path d="M39.76,58.76c-3.19,4.06-3.72,9.74,0,13.45,1.92,1.92,4.44,2.83,6.95,2.78h0s18.72.01,18.72.01c5.18,0,9.38-4.2,9.38-9.38v-24.4c0-2.48-.96-4.96-2.89-6.83-3.76-3.64-10.09-4.15-13.5.26-4.67,6.03-13.88,18.02-18.66,24.11Z" fill="#0e7dc2"/>
  <circle cx="65.49" cy="9.51" r="9.51" fill="#0e7dc2"/>
  <path d="M27.62.04H10.27c-.25-.02-.5-.04-.76-.04s-.51.02-.76.04C3.86.43,0,4.51,0,9.51v55.97c0,5.25,4.26,9.51,9.51,9.51,0,0,0,0,0,0s0,0,0,0h2.53c3.45,0,6.5-2.31,7.63-5.72,3.44-10.45,10.87-18.73,17.84-27.76,3.88-5.03,8.03-11.29,8.03-18.83C45.54,10.2,37.5.04,27.62.04Z" fill="#0e7dc2"/>
</svg>