<?xml version="1.0" encoding="UTF-8"?>
<svg id="Layer_1" data-name="Layer 1" xmlns="http://www.w3.org/2000/svg" width="23.96mm" height="23.96mm" viewBox="0 0 67.91 67.91">
  <path d="M36,53.21c-2.89,3.68-3.36,8.82,0,12.18,1.73,1.73,4.02,2.57,6.3,2.51h0s16.95,0,16.95,0c4.69,0,8.49-3.8,8.49-8.49v-22.09c0-2.25-.87-4.49-2.62-6.18-3.4-3.3-9.14-3.76-12.22.23-4.23,5.46-12.57,16.32-16.89,21.83Z" fill="#0e7dc2"/>
  <circle cx="59.29" cy="8.61" r="8.61" fill="#0e7dc2"/>
  <path d="M25.01.03h-15.71c-.23-.02-.45-.03-.69-.03s-.46.02-.69.03C3.49.39,0,4.09,0,8.61v50.69c0,4.76,3.86,8.61,8.61,8.61,0,0,0,0,0,0s0,0,0,0h2.29c3.13,0,5.89-2.09,6.9-5.18,3.12-9.47,9.84-16.96,16.15-25.14,3.51-4.56,7.27-10.23,7.27-17.05C41.23,9.23,33.96.03,25.01.03Z" fill="#0e7dc2"/>
</svg>