<?xml version="1.0" encoding="UTF-8"?>
<svg id="Layer_1" data-name="Layer 1" xmlns="http://www.w3.org/2000/svg" width="48" height="48" viewBox="0 0 48 48">
  <path d="M25.45,37.61c-2.04,2.6-2.38,6.23,0,8.61,1.23,1.23,2.84,1.81,4.45,1.78h0s11.98,0,11.98,0c3.32,0,6-2.69,6-6v-15.61c0-1.59-.62-3.17-1.85-4.37-2.4-2.33-6.46-2.65-8.64.16-2.99,3.86-8.88,11.53-11.94,15.43Z" fill="#0e7dc2"/>
  <circle cx="41.91" cy="6.09" r="6.09" fill="#0e7dc2"/>
  <path d="M17.68.02H6.57c-.16-.01-.32-.02-.48-.02s-.32.01-.48.02C2.47.27,0,2.89,0,6.09v35.82c0,3.36,2.73,6.09,6.09,6.09,0,0,0,0,0,0s0,0,0,0h1.62c2.21,0,4.16-1.48,4.88-3.66,2.2-6.69,6.96-11.99,11.42-17.77,2.48-3.22,5.14-7.23,5.14-12.05C29.15,6.53,24,.02,17.68.02Z" fill="#0e7dc2"/>
</svg>