<?xml version="1.0" encoding="UTF-8"?>
<svg id="Layer_1" data-name="Layer 1" xmlns="http://www.w3.org/2000/svg" width="124.72mm" height="23.96mm" viewBox="0 0 353.55 67.91">
  <path d="M36,53.21c-2.89,3.68-3.36,8.82,0,12.18,1.73,1.73,4.02,2.57,6.3,2.51h0s16.95,0,16.95,0c4.69,0,8.49-3.8,8.49-8.49v-22.09c0-2.25-.87-4.49-2.62-6.18-3.4-3.3-9.14-3.76-12.22.23-4.23,5.46-12.57,16.32-16.89,21.83Z" fill="#0e7dc2"/>
  <circle cx="59.29" cy="8.61" r="8.61" fill="#0e7dc2"/>
  <path d="M25.01.03h-15.71c-.23-.02-.45-.03-.69-.03s-.46.02-.69.03C3.49.39,0,4.09,0,8.61v50.69c0,4.76,3.86,8.61,8.61,8.61,0,0,0,0,0,0s0,0,0,0h2.29c3.13,0,5.89-2.09,6.9-5.18,3.12-9.47,9.84-16.96,16.15-25.14,3.51-4.56,7.27-10.23,7.27-17.05C41.23,9.23,33.96.03,25.01.03Z" fill="#0e7dc2"/>
  <path d="M196.59,0c2.32,0,4.17,1.85,4.17,4.17s-1.85,4.17-4.17,4.17-4.17-1.85-4.17-4.17,1.85-4.17,4.17-4.17ZM193.42,11.35h6.34v25.03h-6.34V11.35Z" fill="#0e7dc2"/>
  <path d="M244.92,20.28v16.11h-6.34v-14.47c0-3.43-1.32-5.28-4.49-5.28-3.33,0-4.91,3.22-4.91,3.22v16.53h-6.34v-14.47c0-3.43-1.32-5.28-4.49-5.28-3.33,0-4.91,3.22-4.91,3.22v16.53h-6.34V11.35h5.92v3.64s2.27-4.28,7.39-4.28c6.02,0,7.76,4.38,7.76,4.38,0,0,2.11-4.38,7.98-4.38,5.07,0,8.77,3.54,8.77,9.56Z" fill="#0e7dc2"/>
  <path d="M257.11,11.35v3.27s2.38-3.91,7.55-3.91c6.5,0,12.2,5.44,12.2,13.15s-5.7,13.15-12.2,13.15c-3.96,0-6.23-2.17-7.08-3.22v14.74h-6.34V11.35h5.86ZM257.59,27.62s1.79,3.49,5.97,3.49,6.87-3.12,6.87-7.24-2.59-7.24-6.87-7.24-5.97,3.49-5.97,3.49v7.5Z" fill="#0e7dc2"/>
  <path d="M303.48,20.07v16.32h-5.86v-3.17s-2.59,3.8-8.24,3.8c-4.7,0-9.03-3.06-9.03-8.4,0-4.81,4.38-8.29,9.82-8.29,4.59,0,6.97,1.8,6.97,1.8v-1.43c0-3.27-3.17-4.33-5.39-4.33-3.64,0-7.5,1.85-7.5,1.85l-2.06-5.23s4.65-2.27,9.88-2.27c7.18,0,11.41,3.64,11.41,9.35ZM297.14,28.83v-2.59s-2.27-1.27-5.7-1.27c-1.95,0-4.65.84-4.65,3.54s2.59,3.22,4.54,3.22c3.8,0,5.81-2.9,5.81-2.9Z" fill="#0e7dc2"/>
  <path d="M327.78,28.04l4.17,4.22s-3.59,4.75-10.35,4.75c-7.5,0-13.47-5.81-13.47-13.15s5.97-13.15,13.47-13.15c6.71,0,10.25,4.65,10.25,4.65l-4.38,3.91s-2.06-2.64-5.86-2.64c-4.28,0-7.02,3.33-7.02,7.24s2.75,7.24,7.02,7.24,6.18-3.06,6.18-3.06Z" fill="#0e7dc2"/>
  <path d="M334.06,11.35h4.91V3.91h6.34v7.45h7.55v5.7h-7.55v10.09c0,3.06,1.58,3.96,3.27,3.96,1.43,0,2.64-.9,2.64-.9l2.32,5.18s-2.38,1.64-6.02,1.64c-4.86,0-8.56-3.54-8.56-8.87v-11.09h-4.91v-5.7Z" fill="#0e7dc2"/>
  <path d="M87.88,12.42v3.12s2.27-3.73,7.2-3.73c6.2,0,11.64,5.19,11.64,12.55s-5.44,12.54-11.64,12.54c-3.78,0-5.95-2.07-6.75-3.07v14.06h-6.05V12.42h5.59ZM88.33,27.94s1.71,3.33,5.69,3.33,6.55-2.97,6.55-6.9-2.47-6.9-6.55-6.9-5.69,3.32-5.69,3.32v7.15Z"/>
  <path d="M127.52,12.57l-2.12,5.44s-1.11-.55-2.87-.55c-3.68,0-5.34,3.22-5.34,3.22v15.62h-6.05V12.42h5.74v3.48s2.07-4.08,6.5-4.08c2.17,0,4.13.76,4.13.76Z"/>
  <path d="M134.63.73c2.22,0,3.98,1.76,3.98,3.98s-1.76,3.98-3.98,3.98-3.98-1.76-3.98-3.98,1.76-3.98,3.98-3.98ZM131.6,12.42h6.05v23.88h-6.05V12.42Z"/>
  <path d="M166.22,20.83v15.47h-6.05v-13.96c0-3.43-2.12-4.89-4.74-4.89-3.12,0-4.74,3.07-4.74,3.07v15.77h-6.05V12.42h5.64v3.48s2.12-4.08,7.15-4.08c4.63,0,8.77,3.27,8.77,9.02Z"/>
  <path d="M170.34,12.42h4.69v-7.1h6.05v7.1h7.2v5.44h-7.2v9.62c0,2.92,1.51,3.78,3.12,3.78,1.36,0,2.52-.86,2.52-.86l2.22,4.94s-2.27,1.56-5.74,1.56c-4.63,0-8.16-3.37-8.16-8.46v-10.58h-4.69v-5.44Z"/>
  <path d="M146.19,56.07c.88,0,1.63.74,1.63,1.63s-.74,1.63-1.63,1.63-1.63-.74-1.63-1.63.74-1.63,1.63-1.63Z"/>
  <path d="M85.06,52.49c2.94,0,5.04,2.15,5.04,5.09s-2.1,5.09-5.04,5.09h-2.78v-10.19h2.78ZM84.92,61.98c2.68,0,4.4-1.76,4.4-4.4s-1.72-4.4-4.4-4.4h-1.88v8.79h1.88Z"/>
  <path d="M94.38,57.1h4.54v.7h-4.54v4.18h4.98v.7h-5.73v-10.19h5.65v.7h-4.89v3.92Z"/>
  <path d="M105.7,57.83c-1.5-.65-2.74-1.44-2.74-2.98,0-1.15.93-2.53,2.84-2.53s2.77,1.47,2.77,1.47l-.58.45s-.73-1.18-2.17-1.18c-1.28,0-2.1.77-2.1,1.79,0,1.25,1.15,1.8,2.61,2.45,1.56.68,2.43,1.47,2.43,2.84,0,1.64-1.34,2.72-3.04,2.72-2.24,0-3.16-2.08-3.16-2.08l.68-.41s.67,1.75,2.47,1.75c1.27,0,2.29-.76,2.29-1.98s-1.11-1.78-2.3-2.3Z"/>
  <path d="M112.66,52.49h.76v10.19h-.76v-10.19Z"/>
  <path d="M122.64,57.32h3.52v4.16s-1.41,1.37-4,1.37c-3.01,0-5.02-2.33-5.02-5.27s2.08-5.27,5.02-5.27c2.53,0,3.7,1.44,3.7,1.44l-.54.51s-.98-1.21-3.16-1.21c-2.5,0-4.24,1.99-4.24,4.53s1.64,4.53,4.24,4.53c2.18,0,3.26-.96,3.26-.96v-3.11h-2.78v-.71Z"/>
  <path d="M130.68,52.49l6.26,8.88v-8.88h.76v10.19h-.76l-6.26-8.91v8.91h-.76v-10.19h.76Z"/>
  <path d="M157.46,52.49c2.94,0,5.04,2.15,5.04,5.09s-2.1,5.09-5.04,5.09h-2.78v-10.19h2.78ZM157.32,61.98c2.68,0,4.4-1.76,4.4-4.4s-1.72-4.4-4.4-4.4h-1.88v8.79h1.88Z"/>
  <path d="M166.22,52.49h.76v10.19h-.76v-10.19Z"/>
  <path d="M176.21,57.32h3.52v4.16s-1.41,1.37-4,1.37c-3.01,0-5.02-2.33-5.02-5.27s2.08-5.27,5.02-5.27c2.53,0,3.7,1.44,3.7,1.44l-.54.51s-.98-1.21-3.16-1.21c-2.5,0-4.24,1.99-4.24,4.53s1.64,4.53,4.24,4.53c2.18,0,3.26-.96,3.26-.96v-3.11h-2.78v-.71Z"/>
  <path d="M183.69,52.49h.76v10.19h-.76v-10.19Z"/>
  <path d="M190.84,53.19h-3.07v-.7h6.9v.7h-3.07v9.49h-.76v-9.49Z"/>
  <path d="M200.33,52.49h.84l4.06,10.19h-.81l-1.16-2.97h-5.01l-1.16,2.97h-.81l4.06-10.19ZM198.54,59.01h4.43l-2.21-5.68-2.21,5.68Z"/>
  <path d="M208.29,52.49h.76v9.49h4.86v.7h-5.62v-10.19Z"/>
  <path d="M228.1,52.49h2.6c1.98,0,3.22,1.28,3.22,2.95s-1.24,2.95-3.22,2.95h-1.85v4.28h-.76v-10.19ZM230.72,57.7c1.43,0,2.42-.92,2.42-2.26s-.99-2.26-2.42-2.26h-1.86v4.51h1.86Z"/>
  <path d="M237.19,52.49h2.46c2.1,0,3.3,1.21,3.3,2.88,0,2.2-1.92,2.77-2.63,2.84l2.91,4.47h-.92l-2.85-4.42h-1.51v4.42h-.76v-10.19ZM239.69,57.53c1.53,0,2.47-.82,2.47-2.15s-.96-2.15-2.47-2.15h-1.75v4.31h1.75Z"/>
  <path d="M246.8,52.49h.76v10.19h-.76v-10.19Z"/>
  <path d="M252.69,52.49l6.26,8.88v-8.88h.76v10.19h-.76l-6.26-8.91v8.91h-.76v-10.19h.76Z"/>
  <path d="M265.89,53.19h-3.07v-.7h6.9v.7h-3.07v9.49h-.76v-9.49Z"/>
  <path d="M287.44,57.83c-1.5-.65-2.74-1.44-2.74-2.98,0-1.15.93-2.53,2.84-2.53s2.77,1.47,2.77,1.47l-.58.45s-.73-1.18-2.17-1.18c-1.28,0-2.1.77-2.1,1.79,0,1.25,1.15,1.8,2.61,2.45,1.56.68,2.43,1.47,2.43,2.84,0,1.64-1.34,2.72-3.04,2.72-2.24,0-3.16-2.08-3.16-2.08l.68-.41s.67,1.75,2.47,1.75c1.27,0,2.29-.76,2.29-1.98s-1.11-1.78-2.3-2.3Z"/>
  <path d="M294.4,52.49h.76v10.19h-.76v-10.19Z"/>
  <path d="M304.39,57.32h3.52v4.16s-1.41,1.37-4,1.37c-3.01,0-5.02-2.33-5.02-5.27s2.08-5.27,5.02-5.27c2.53,0,3.7,1.44,3.7,1.44l-.54.51s-.98-1.21-3.16-1.21c-2.5,0-4.24,1.99-4.24,4.53s1.64,4.53,4.24,4.53c2.18,0,3.26-.96,3.26-.96v-3.11h-2.78v-.71Z"/>
  <path d="M312.42,52.49l6.26,8.88v-8.88h.76v10.19h-.76l-6.26-8.91v8.91h-.76v-10.19h.76Z"/>
  <path d="M326.55,52.49h.84l4.06,10.19h-.81l-1.16-2.97h-5.01l-1.16,2.97h-.81l4.06-10.19ZM324.76,59.01h4.42l-2.21-5.68-2.21,5.68Z"/>
  <path d="M339.2,57.32h3.52v4.16s-1.41,1.37-4,1.37c-3.01,0-5.02-2.33-5.02-5.27s2.08-5.27,5.02-5.27c2.53,0,3.7,1.44,3.7,1.44l-.54.51s-.98-1.21-3.16-1.21c-2.5,0-4.24,1.99-4.24,4.53s1.64,4.53,4.24,4.53c2.18,0,3.26-.96,3.26-.96v-3.11h-2.78v-.71Z"/>
  <path d="M347.24,57.1h4.54v.7h-4.54v4.18h4.98v.7h-5.74v-10.19h5.65v.7h-4.89v3.92Z"/>
  <path d="M220.02,56.07c.88,0,1.63.74,1.63,1.63s-.74,1.63-1.63,1.63-1.63-.74-1.63-1.63.74-1.63,1.63-1.63Z"/>
  <path d="M276.22,56.07c.88,0,1.63.74,1.63,1.63s-.74,1.63-1.63,1.63-1.63-.74-1.63-1.63.74-1.63,1.63-1.63Z"/>
</svg>