<?xml version="1.0" encoding="UTF-8"?>
<svg id="Layer_1" data-name="Layer 1" xmlns="http://www.w3.org/2000/svg" width="49" height="49" viewBox="0 0 49 49">
  <path d="M25.95,38.11c-2.04,2.6-2.38,6.23,0,8.61,1.23,1.23,2.84,1.81,4.45,1.78h0s11.98,0,11.98,0c3.32,0,6-2.69,6-6v-15.61c0-1.59-.62-3.17-1.85-4.37-2.4-2.33-6.46-2.65-8.64.16-2.99,3.86-8.88,11.53-11.94,15.43Z" fill="none" stroke="#333" stroke-miterlimit="10"/>
  <circle cx="42.41" cy="6.59" r="6.09" fill="none" stroke="#333" stroke-miterlimit="10"/>
  <path d="M18.18.52H7.07c-.16-.01-.32-.02-.48-.02s-.32.01-.48.02C2.97.77.5,3.39.5,6.59v35.82c0,3.36,2.73,6.09,6.09,6.09,0,0,0,0,0,0s0,0,0,0h1.62c2.21,0,4.16-1.48,4.88-3.66,2.2-6.69,6.96-11.99,11.42-17.77,2.48-3.22,5.14-7.23,5.14-12.05,0-7.99-5.14-14.49-11.47-14.49Z" fill="none" stroke="#333" stroke-miterlimit="10"/>
</svg>