<?xml version="1.0" encoding="UTF-8"?>
<svg id="Layer_1" data-name="Layer 1" xmlns="http://www.w3.org/2000/svg" width="95.7mm" height="17.12mm" viewBox="0 0 271.26 48.53">
  <path d="M114.31,0c2.32,0,4.17,1.85,4.17,4.17s-1.85,4.17-4.17,4.17-4.17-1.85-4.17-4.17,1.85-4.17,4.17-4.17ZM111.14,11.35h6.34v25.03h-6.34V11.35Z" fill="#0e7dc2"/>
  <path d="M162.63,20.28v16.11h-6.34v-14.47c0-3.43-1.32-5.28-4.49-5.28-3.33,0-4.91,3.22-4.91,3.22v16.53h-6.34v-14.47c0-3.43-1.32-5.28-4.49-5.28-3.33,0-4.91,3.22-4.91,3.22v16.53h-6.34V11.35h5.92v3.64s2.27-4.28,7.39-4.28c6.02,0,7.76,4.38,7.76,4.38,0,0,2.11-4.38,7.98-4.38,5.07,0,8.77,3.54,8.77,9.56Z" fill="#0e7dc2"/>
  <path d="M174.83,11.35v3.27s2.38-3.91,7.55-3.91c6.5,0,12.2,5.44,12.2,13.15s-5.7,13.15-12.2,13.15c-3.96,0-6.23-2.17-7.08-3.22v14.74h-6.34V11.35h5.86ZM175.31,27.62s1.79,3.49,5.97,3.49,6.87-3.12,6.87-7.24-2.59-7.24-6.87-7.24-5.97,3.49-5.97,3.49v7.5Z" fill="#0e7dc2"/>
  <path d="M221.2,20.07v16.32h-5.86v-3.17s-2.59,3.8-8.24,3.8c-4.7,0-9.03-3.06-9.03-8.4,0-4.81,4.38-8.29,9.82-8.29,4.59,0,6.97,1.8,6.97,1.8v-1.43c0-3.27-3.17-4.33-5.39-4.33-3.64,0-7.5,1.85-7.5,1.85l-2.06-5.23s4.65-2.27,9.88-2.27c7.18,0,11.41,3.64,11.41,9.35ZM214.86,28.83v-2.59s-2.27-1.27-5.7-1.27c-1.95,0-4.65.84-4.65,3.54s2.59,3.22,4.54,3.22c3.8,0,5.81-2.9,5.81-2.9Z" fill="#0e7dc2"/>
  <path d="M245.49,28.04l4.17,4.22s-3.59,4.75-10.35,4.75c-7.5,0-13.47-5.81-13.47-13.15s5.97-13.15,13.47-13.15c6.71,0,10.25,4.65,10.25,4.65l-4.38,3.91s-2.06-2.64-5.86-2.64c-4.28,0-7.02,3.33-7.02,7.24s2.75,7.24,7.02,7.24,6.18-3.06,6.18-3.06Z" fill="#0e7dc2"/>
  <path d="M251.77,11.35h4.91V3.91h6.34v7.45h7.55v5.7h-7.55v10.09c0,3.06,1.58,3.96,3.27,3.96,1.43,0,2.64-.9,2.64-.9l2.32,5.18s-2.38,1.64-6.02,1.64c-4.86,0-8.56-3.54-8.56-8.87v-11.09h-4.91v-5.7Z" fill="#0e7dc2"/>
  <path d="M5.59,12.42v3.12s2.27-3.73,7.2-3.73c6.2,0,11.64,5.19,11.64,12.55s-5.44,12.54-11.64,12.54c-3.78,0-5.95-2.07-6.75-3.07v14.06H0V12.42h5.59ZM6.05,27.94s1.71,3.33,5.69,3.33,6.55-2.97,6.55-6.9-2.47-6.9-6.55-6.9-5.69,3.32-5.69,3.32v7.15Z"/>
  <path d="M45.24,12.57l-2.12,5.44s-1.11-.55-2.87-.55c-3.68,0-5.34,3.22-5.34,3.22v15.62h-6.05V12.42h5.74v3.48s2.07-4.08,6.5-4.08c2.17,0,4.13.76,4.13.76Z"/>
  <path d="M52.34.73c2.22,0,3.98,1.76,3.98,3.98s-1.76,3.98-3.98,3.98-3.98-1.76-3.98-3.98,1.76-3.98,3.98-3.98ZM49.32,12.42h6.05v23.88h-6.05V12.42Z"/>
  <path d="M83.93,20.83v15.47h-6.05v-13.96c0-3.43-2.12-4.89-4.74-4.89-3.12,0-4.74,3.07-4.74,3.07v15.77h-6.05V12.42h5.64v3.48s2.12-4.08,7.15-4.08c4.63,0,8.77,3.27,8.77,9.02Z"/>
  <path d="M88.06,12.42h4.69v-7.1h6.05v7.1h7.2v5.44h-7.2v9.62c0,2.92,1.51,3.78,3.12,3.78,1.36,0,2.52-.86,2.52-.86l2.22,4.94s-2.27,1.56-5.74,1.56c-4.63,0-8.16-3.37-8.16-8.46v-10.58h-4.69v-5.44Z"/>
</svg>