<?xml version="1.0" encoding="UTF-8"?>
<svg id="Layer_1" data-name="Layer 1" xmlns="http://www.w3.org/2000/svg" width="54.53mm" height="18.88mm" viewBox="0 0 154.58 53.52">
  <path d="M20.34,37.41c-1.63,2.08-1.9,4.98,0,6.88.98.98,2.27,1.45,3.56,1.42h0s9.57,0,9.57,0c2.65,0,4.8-2.15,4.8-4.8v-12.48c0-1.27-.49-2.54-1.48-3.49-1.92-1.86-5.16-2.12-6.91.13-2.39,3.08-7.1,9.22-9.54,12.33Z" fill="#0e7dc2"/>
  <circle cx="33.5" cy="12.21" r="4.87" fill="#0e7dc2"/>
  <path d="M14.13,7.36H5.25c-.13-.01-.26-.02-.39-.02s-.26,0-.39.02c-2.51.2-4.48,2.29-4.48,4.85v28.64c0,2.69,2.18,4.87,4.87,4.87,0,0,0,0,0,0s0,0,0,0h1.3c1.77,0,3.33-1.18,3.9-2.93,1.76-5.35,5.56-9.58,9.12-14.2,1.99-2.57,4.11-5.78,4.11-9.63,0-6.39-4.11-11.58-9.17-11.58Z" fill="#0e7dc2"/>
  <path d="M46.37,22.34c1.49,0,2.68,1.19,2.68,2.68s-1.19,2.68-2.68,2.68-2.68-1.19-2.68-2.68,1.19-2.68,2.68-2.68Z" fill="#0e7dc2"/>
  <rect x="44.34" y="29.63" width="4.07" height="16.08" fill="#0e7dc2"/>
  <circle cx="125.68" cy="21.02" r="1.42" fill="#0e7dc2"/>
  <circle cx="153.16" cy="44.31" r="1.42"/>
  <path d="M77.42,35.36v10.35h-4.07v-9.3c0-2.21-.85-3.39-2.88-3.39-2.14,0-3.16,2.07-3.16,2.07v10.62h-4.07v-9.3c0-2.21-.85-3.39-2.88-3.39-2.14,0-3.15,2.07-3.15,2.07v10.62h-4.07v-16.08h3.8v2.34s1.46-2.75,4.75-2.75c3.87,0,4.99,2.82,4.99,2.82,0,0,1.36-2.82,5.12-2.82,3.26,0,5.63,2.27,5.63,6.14Z" fill="#0e7dc2"/>
  <path d="M85.25,29.63v2.1s1.53-2.51,4.85-2.51c4.17,0,7.84,3.49,7.84,8.45s-3.66,8.45-7.84,8.45c-2.54,0-4-1.39-4.55-2.07v9.47h-4.07v-23.89h3.77ZM85.56,40.08s1.15,2.24,3.83,2.24,4.41-2,4.41-4.65-1.66-4.65-4.41-4.65-3.83,2.24-3.83,2.24v4.82Z" fill="#0e7dc2"/>
  <path d="M115.04,35.23v10.48h-3.77v-2.04s-1.66,2.44-5.29,2.44c-3.02,0-5.8-1.97-5.8-5.39,0-3.09,2.82-5.33,6.31-5.33,2.95,0,4.48,1.15,4.48,1.15v-.92c0-2.1-2.04-2.78-3.46-2.78-2.34,0-4.82,1.19-4.82,1.19l-1.32-3.36s2.99-1.46,6.35-1.46c4.61,0,7.33,2.34,7.33,6.01ZM110.97,40.86v-1.66s-1.46-.81-3.66-.81c-1.26,0-2.99.54-2.99,2.27s1.66,2.07,2.92,2.07c2.44,0,3.73-1.87,3.73-1.87Z" fill="#0e7dc2"/>
  <path d="M130.65,40.35l2.68,2.71s-2.31,3.05-6.65,3.05c-4.82,0-8.65-3.73-8.65-8.45s3.83-8.45,8.65-8.45c4.31,0,6.58,2.99,6.58,2.99l-2.82,2.51s-1.32-1.7-3.77-1.7c-2.75,0-4.51,2.14-4.51,4.65s1.76,4.65,4.51,4.65,3.97-1.97,3.97-1.97Z" fill="#0e7dc2"/>
  <path d="M134.69,29.63h3.16v-4.78h4.07v4.78h4.85v3.66h-4.85v6.48c0,1.97,1.02,2.55,2.1,2.55.92,0,1.7-.58,1.7-.58l1.49,3.33s-1.53,1.05-3.87,1.05c-3.12,0-5.5-2.27-5.5-5.7v-7.13h-3.16v-3.66Z" fill="#0e7dc2"/>
  <path d="M56.64,7.34v1.96s1.42-2.34,4.53-2.34c3.89,0,7.31,3.26,7.31,7.88s-3.42,7.88-7.31,7.88c-2.37,0-3.74-1.3-4.24-1.93v8.83h-3.8V7.34h3.51ZM56.92,17.09s1.08,2.09,3.58,2.09,4.12-1.87,4.12-4.34-1.55-4.34-4.12-4.34-3.58,2.09-3.58,2.09v4.5Z"/>
  <path d="M81.55,7.44l-1.33,3.42s-.7-.35-1.8-.35c-2.31,0-3.36,2.03-3.36,2.03v9.81h-3.8V7.34h3.61v2.18s1.3-2.56,4.08-2.56c1.36,0,2.6.47,2.6.47Z"/>
  <path d="M86.01,0c1.39,0,2.5,1.11,2.5,2.5s-1.11,2.5-2.5,2.5-2.5-1.11-2.5-2.5,1.11-2.5,2.5-2.5ZM84.11,7.34h3.8v15.01h-3.8V7.34Z"/>
  <path d="M105.86,12.63v9.72h-3.8v-8.77c0-2.15-1.33-3.07-2.98-3.07-1.96,0-2.98,1.93-2.98,1.93v9.91h-3.8V7.34h3.55v2.18s1.33-2.56,4.5-2.56c2.91,0,5.51,2.06,5.51,5.67Z"/>
  <path d="M108.45,7.34h2.94V2.88h3.8v4.46h4.53v3.42h-4.53v6.05c0,1.84.95,2.37,1.96,2.37.86,0,1.58-.54,1.58-.54l1.39,3.1s-1.42.98-3.61.98c-2.91,0-5.13-2.12-5.13-5.32v-6.65h-2.94v-3.42Z"/>
</svg>