<?xml version="1.0" encoding="UTF-8"?>
<svg id="Layer_1" data-name="Layer 1" xmlns="http://www.w3.org/2000/svg" width="162.33mm" height="24.66mm" viewBox="0 0 460.15 69.91">
  <g>
    <path d="M36,53.21c-2.89,3.68-3.36,8.82,0,12.18,1.73,1.73,4.02,2.57,6.3,2.51h0s16.95,0,16.95,0c4.69,0,8.49-3.8,8.49-8.49v-22.09c0-2.25-.87-4.49-2.62-6.18-3.4-3.3-9.14-3.76-12.22.23-4.23,5.46-12.57,16.32-16.89,21.83Z" fill="#0e7dc2"/>
    <circle cx="59.29" cy="8.61" r="8.61" fill="#0e7dc2"/>
    <path d="M25.01.03h-15.71c-.23-.02-.45-.03-.69-.03s-.46.02-.69.03C3.49.39,0,4.09,0,8.61v50.69c0,4.76,3.86,8.61,8.61,8.61,0,0,0,0,0,0s0,0,0,0h2.29c3.13,0,5.89-2.09,6.9-5.18,3.12-9.47,9.84-16.96,16.15-25.14,3.51-4.56,7.27-10.23,7.27-17.05C41.23,9.23,33.96.03,25.01.03Z" fill="#0e7dc2"/>
  </g>
  <g>
    <path d="M240.53,0c3.25,0,5.84,2.59,5.84,5.84s-2.59,5.84-5.84,5.84-5.84-2.59-5.84-5.84S237.28,0,240.53,0ZM236.1,15.89h8.87v35.03h-8.87V15.89Z" fill="#0e7dc2"/>
    <path d="M308.15,28.38v22.54h-8.87v-20.25c0-4.8-1.85-7.39-6.28-7.39-4.66,0-6.87,4.51-6.87,4.51v23.13h-8.87v-20.25c0-4.8-1.85-7.39-6.28-7.39-4.65,0-6.87,4.51-6.87,4.51v23.13h-8.87V15.89h8.28v5.1s3.18-5.99,10.35-5.99c8.43,0,10.86,6.13,10.86,6.13,0,0,2.96-6.13,11.16-6.13,7.09,0,12.27,4.95,12.27,13.38Z" fill="#0e7dc2"/>
    <path d="M325.22,15.89v4.58s3.33-5.47,10.57-5.47c9.09,0,17.07,7.61,17.07,18.4s-7.98,18.4-17.07,18.4c-5.54,0-8.72-3.03-9.9-4.51v20.62h-8.87V15.89h8.2ZM325.89,38.65s2.51,4.88,8.35,4.88,9.61-4.36,9.61-10.12-3.62-10.12-9.61-10.12-8.35,4.88-8.35,4.88v10.49Z" fill="#0e7dc2"/>
    <path d="M390.1,28.08v22.84h-8.2v-4.43s-3.62,5.32-11.53,5.32c-6.58,0-12.64-4.29-12.64-11.75,0-6.72,6.13-11.6,13.75-11.6,6.43,0,9.75,2.51,9.75,2.51v-1.99c0-4.58-4.43-6.06-7.54-6.06-5.1,0-10.49,2.59-10.49,2.59l-2.88-7.32s6.5-3.18,13.82-3.18c10.05,0,15.96,5.1,15.96,13.08ZM381.23,40.35v-3.62s-3.18-1.77-7.98-1.77c-2.73,0-6.5,1.18-6.5,4.95s3.62,4.51,6.36,4.51c5.32,0,8.13-4.06,8.13-4.06Z" fill="#0e7dc2"/>
    <path d="M424.09,39.24l5.84,5.91s-5.03,6.65-14.48,6.65c-10.49,0-18.84-8.13-18.84-18.4s8.35-18.4,18.84-18.4c9.39,0,14.34,6.5,14.34,6.5l-6.13,5.47s-2.88-3.69-8.2-3.69c-5.99,0-9.83,4.66-9.83,10.12s3.84,10.12,9.83,10.12,8.65-4.29,8.65-4.29Z" fill="#0e7dc2"/>
    <path d="M432.88,15.89h6.87V5.47h8.87v10.42h10.57v7.98h-10.57v14.11c0,4.29,2.22,5.54,4.58,5.54,2,0,3.69-1.26,3.69-1.26l3.25,7.24s-3.33,2.29-8.42,2.29c-6.8,0-11.97-4.95-11.97-12.42v-15.52h-6.87v-7.98Z" fill="#0e7dc2"/>
    <path d="M88.41,17.38v4.37s3.17-5.22,10.08-5.22c8.67,0,16.29,7.26,16.29,17.55s-7.61,17.55-16.29,17.55c-5.29,0-8.32-2.89-9.45-4.3v19.67h-8.46V17.38h7.83ZM89.05,39.09s2.4,4.65,7.97,4.65,9.16-4.16,9.16-9.66-3.45-9.66-9.16-9.66-7.97,4.65-7.97,4.65v10.01Z" fill="#333"/>
    <path d="M143.89,17.59l-2.96,7.61s-1.55-.78-4.02-.78c-5.15,0-7.47,4.51-7.47,4.51v21.85h-8.46V17.38h8.04v4.86s2.89-5.71,9.1-5.71c3.03,0,5.78,1.06,5.78,1.06Z" fill="#333"/>
    <path d="M153.83,1.03c3.1,0,5.57,2.47,5.57,5.57s-2.47,5.57-5.57,5.57-5.57-2.47-5.57-5.57,2.47-5.57,5.57-5.57ZM149.6,17.38h8.46v33.42h-8.46V17.38Z" fill="#333"/>
    <path d="M198.03,29.15v21.64h-8.46v-19.53c0-4.79-2.96-6.84-6.63-6.84-4.37,0-6.63,4.3-6.63,4.3v22.07h-8.46V17.38h7.9v4.86s2.96-5.71,10.01-5.71c6.48,0,12.27,4.58,12.27,12.62Z" fill="#333"/>
    <path d="M203.81,17.38h6.56V7.44h8.46v9.94h10.08v7.61h-10.08v13.46c0,4.09,2.11,5.29,4.37,5.29,1.9,0,3.52-1.2,3.52-1.2l3.1,6.91s-3.17,2.19-8.04,2.19c-6.48,0-11.42-4.72-11.42-11.84v-14.8h-6.56v-7.61Z" fill="#333"/>
  </g>
</svg>