<?xml version="1.0" encoding="UTF-8"?>
<svg id="Layer_1" data-name="Layer 1" xmlns="http://www.w3.org/2000/svg" width="58mm" height="30.02mm" viewBox="0 0 164.41 85.09">
  <g>
    <path d="M4.26,35.57c2.37,0,4.26,1.89,4.26,4.26s-1.89,4.26-4.26,4.26-4.26-1.89-4.26-4.26,1.89-4.26,4.26-4.26ZM1.02,47.15h6.47v25.54H1.02v-25.54Z" fill="#0e7dc2"/>
    <path d="M53.57,56.26v16.44h-6.47v-14.77c0-3.5-1.35-5.39-4.58-5.39-3.4,0-5.01,3.29-5.01,3.29v16.87h-6.47v-14.77c0-3.5-1.35-5.39-4.58-5.39-3.39,0-5.01,3.29-5.01,3.29v16.87h-6.47v-25.54h6.04v3.72s2.32-4.37,7.54-4.37c6.14,0,7.92,4.47,7.92,4.47,0,0,2.16-4.47,8.14-4.47,5.17,0,8.95,3.61,8.95,9.75Z" fill="#0e7dc2"/>
    <path d="M66.01,47.15v3.34s2.42-3.99,7.71-3.99c6.63,0,12.45,5.55,12.45,13.42s-5.82,13.42-12.45,13.42c-4.04,0-6.36-2.21-7.22-3.29v15.04h-6.47v-37.94h5.98ZM66.5,63.75s1.83,3.56,6.09,3.56,7.01-3.18,7.01-7.38-2.64-7.38-7.01-7.38-6.09,3.56-6.09,3.56v7.65Z" fill="#0e7dc2"/>
    <path d="M113.33,56.04v16.65h-5.98v-3.23s-2.64,3.88-8.41,3.88c-4.8,0-9.21-3.12-9.21-8.57,0-4.9,4.47-8.46,10.02-8.46,4.69,0,7.11,1.83,7.11,1.83v-1.45c0-3.34-3.23-4.42-5.5-4.42-3.72,0-7.65,1.89-7.65,1.89l-2.1-5.34s4.74-2.32,10.08-2.32c7.33,0,11.64,3.72,11.64,9.54ZM106.86,64.99v-2.64s-2.32-1.29-5.82-1.29c-1.99,0-4.74.86-4.74,3.61s2.64,3.29,4.64,3.29c3.88,0,5.93-2.96,5.93-2.96Z" fill="#0e7dc2"/>
    <path d="M138.11,64.18l4.26,4.31s-3.66,4.85-10.56,4.85c-7.65,0-13.74-5.93-13.74-13.42s6.09-13.42,13.74-13.42c6.84,0,10.46,4.74,10.46,4.74l-4.47,3.99s-2.1-2.69-5.98-2.69c-4.36,0-7.17,3.4-7.17,7.38s2.8,7.38,7.17,7.38,6.31-3.13,6.31-3.13Z" fill="#0e7dc2"/>
    <path d="M144.52,47.15h5.01v-7.6h6.47v7.6h7.71v5.82h-7.71v10.29c0,3.13,1.62,4.04,3.34,4.04,1.46,0,2.69-.92,2.69-.92l2.37,5.28s-2.42,1.67-6.14,1.67c-4.96,0-8.73-3.61-8.73-9.05v-11.32h-5.01v-5.82Z" fill="#0e7dc2"/>
  </g>
  <g>
    <path d="M20.57,11.69v3.12s2.27-3.73,7.2-3.73c6.2,0,11.64,5.19,11.64,12.55s-5.44,12.54-11.64,12.54c-3.78,0-5.95-2.07-6.75-3.07v14.06h-6.05V11.69h5.59ZM21.02,27.21s1.71,3.33,5.69,3.33,6.55-2.97,6.55-6.9-2.47-6.9-6.55-6.9-5.69,3.32-5.69,3.32v7.15Z"/>
    <path d="M60.22,11.84l-2.12,5.44s-1.11-.55-2.87-.55c-3.68,0-5.34,3.22-5.34,3.22v15.62h-6.05V11.69h5.74v3.48s2.07-4.08,6.5-4.08c2.17,0,4.13.76,4.13.76Z"/>
    <path d="M67.32,0c2.22,0,3.98,1.76,3.98,3.98s-1.76,3.98-3.98,3.98-3.98-1.76-3.98-3.98,1.76-3.98,3.98-3.98ZM64.3,11.69h6.05v23.88h-6.05V11.69Z"/>
    <path d="M98.91,20.1v15.47h-6.05v-13.96c0-3.43-2.12-4.89-4.74-4.89-3.12,0-4.74,3.07-4.74,3.07v15.77h-6.05V11.69h5.64v3.48s2.12-4.08,7.15-4.08c4.63,0,8.77,3.27,8.77,9.02Z"/>
    <path d="M103.04,11.69h4.69v-7.1h6.05v7.1h7.2v5.44h-7.2v9.62c0,2.92,1.51,3.78,3.12,3.78,1.36,0,2.52-.86,2.52-.86l2.22,4.94s-2.27,1.56-5.74,1.56c-4.63,0-8.16-3.37-8.16-8.46v-10.58h-4.69v-5.44Z"/>
  </g>
</svg>