<?xml version="1.0" encoding="UTF-8"?>
<svg id="Layer_1" data-name="Layer 1" xmlns="http://www.w3.org/2000/svg" width="28.98mm" height="24mm" viewBox="0 0 82.16 68.03">
  <path d="M82.16,17.26v11.32h-33.69v.03c-2.38-.15-4.77.71-6.41,2.82-4.23,5.47-12.59,16.35-16.92,21.87-2.89,3.69-3.37,8.84,0,12.21,1.73,1.73,4.03,2.57,6.31,2.51h0s-31.45.01-31.45.01c3.13,0,5.9-2.09,6.92-5.19,3.12-9.48,9.85-16.98,16.18-25.18,3.52-4.56,7.28-10.24,7.28-17.08C30.38,9.25,23.09.04,14.13.04l34.34-.04c-4.76,0-8.63,3.87-8.63,8.63s3.87,8.63,8.63,8.63h33.69Z" fill="#fff"/>
</svg>